<svg width="920" height="620" viewBox="0 0 920 620" fill="none" xmlns="http://www.w3.org/2000/svg">
  <rect width="920" height="620" rx="28" fill="#E9F2FF"/>
  <rect x="36" y="36" width="848" height="548" rx="18" fill="#FFFFFF"/>
  <rect x="68" y="74" width="220" height="24" rx="8" fill="#D7E7FF"/>
  <rect x="68" y="122" width="784" height="1" fill="#E5EEFA"/>
  <rect x="68" y="156" width="170" height="330" rx="14" fill="#F4F8FF"/>
  <rect x="260" y="156" width="292" height="158" rx="14" fill="#1350C8"/>
  <rect x="572" y="156" width="280" height="158" rx="14" fill="#EAF3FF"/>
  <rect x="260" y="328" width="592" height="158" rx="14" fill="#F7FAFF"/>
  <circle cx="312" cy="220" r="22" fill="#7FA7FF"/>
  <rect x="348" y="204" width="154" height="12" rx="6" fill="#B9D0FF"/>
  <rect x="348" y="226" width="120" height="12" rx="6" fill="#A3C0FF"/>
  <rect x="602" y="198" width="218" height="10" rx="5" fill="#BDD2F6"/>
  <rect x="602" y="220" width="160" height="10" rx="5" fill="#D0DEF7"/>
  <rect x="602" y="242" width="190" height="10" rx="5" fill="#D0DEF7"/>
  <path d="M292 428C332 388 370 402 404 362C433 328 471 338 510 354C548 370 572 418 620 404C670 390 702 340 742 332" stroke="#2C66D6" stroke-width="8" stroke-linecap="round"/>
  <circle cx="292" cy="428" r="8" fill="#2C66D6"/>
  <circle cx="404" cy="362" r="8" fill="#2C66D6"/>
  <circle cx="510" cy="354" r="8" fill="#2C66D6"/>
  <circle cx="620" cy="404" r="8" fill="#2C66D6"/>
  <circle cx="742" cy="332" r="8" fill="#2C66D6"/>
</svg>
