<svg width="860" height="560" viewBox="0 0 860 560" fill="none" xmlns="http://www.w3.org/2000/svg">
  <rect width="860" height="560" rx="28" fill="#ECF4FF"/>
  <rect x="62" y="66" width="736" height="428" rx="20" fill="#FFFFFF"/>
  <rect x="104" y="110" width="260" height="340" rx="16" fill="#F2F7FF"/>
  <rect x="388" y="110" width="368" height="102" rx="16" fill="#1553CB"/>
  <rect x="388" y="232" width="368" height="102" rx="16" fill="#E8F1FF"/>
  <rect x="388" y="354" width="368" height="96" rx="16" fill="#F6FAFF"/>
  <circle cx="170" cy="192" r="44" fill="#8DB2FF"/>
  <rect x="228" y="176" width="104" height="12" rx="6" fill="#BAD1FB"/>
  <rect x="228" y="200" width="86" height="12" rx="6" fill="#D0E0FB"/>
  <circle cx="170" cy="306" r="44" fill="#B8CEFF"/>
  <rect x="228" y="290" width="104" height="12" rx="6" fill="#BAD1FB"/>
  <rect x="228" y="314" width="86" height="12" rx="6" fill="#D0E0FB"/>
  <rect x="430" y="150" width="144" height="12" rx="6" fill="#A8C4FF"/>
  <rect x="430" y="170" width="210" height="12" rx="6" fill="#C1D4FF"/>
  <rect x="430" y="272" width="192" height="12" rx="6" fill="#B7CFF8"/>
  <rect x="430" y="292" width="146" height="12" rx="6" fill="#CDDEFA"/>
  <rect x="430" y="390" width="226" height="12" rx="6" fill="#C5D8FA"/>
  <rect x="430" y="410" width="168" height="12" rx="6" fill="#D4E2FA"/>
</svg>
